<svg enable-background="new 0 0 20 20" viewBox="0 0 20 20" xmlns="http://www.w3.org/2000/svg"><path clip-rule="evenodd" d="m9.29 8.71c.18.18.43.29.71.29s.53-.11.71-.29l6-6c.18-.18.29-.43.29-.71 0-.55-.45-1-1-1-.28 0-.53.11-.71.29l-5.29 5.3-5.29-5.3c-.18-.18-.43-.29-.71-.29-.55 0-1 .45-1 1 0 .28.11.53.29.71zm1.42 2.58c-.18-.18-.43-.29-.71-.29s-.53.11-.71.29l-6 6c-.18.18-.29.43-.29.71 0 .55.45 1 1 1 .28 0 .53-.11.71-.29l5.29-5.3 5.29 5.29c.18.19.43.3.71.3.55 0 1-.45 1-1 0-.28-.11-.53-.29-.71z" fill-rule="evenodd"/></svg>